# xmcd
#
# Track frame offsets:
#	150
#	16293
#	32189
#	46171
#	59542
#	71058
#	85225
#	96186
#	109897
#	126658
#	138240
#	156278
#	170255
#	187237
#	200347
#	217990
#
# Disc length: 3089 seconds
#
# Revision: 1
# Processed by: cddbd v1.5.1PL0 Copyright (c) Steve Scherf et al.
# Submitted via: audiograbber 1.82.01
#
DISCID=eb0c0f10
DTITLE=Rainha Musical - CD1
DYEAR=2004
DGENRE=Bandinha
TTITLE0=Me Perdoa, Amor
TTITLE1=Sem Saída
TTITLE2=Não Aprendi a Te Esquecer
TTITLE3=Eu Não Sou Fiel
TTITLE4=Rainha de Ivoti
TTITLE5=Minha Fantasia
TTITLE6=Tô Estressado
TTITLE7=A Garagem da Moto
TTITLE8=Mulher Fatal
TTITLE9=Procure Outro Cara
TTITLE10=Não Vivo  Sem Você
TTITLE11=Volta Pra Mim
TTITLE12=Quem Nunca Amou
TTITLE13=Solidão da Lua
TTITLE14=Cadê Você
TTITLE15=Pra Esquecer Dela
EXTD=
EXTT0=
EXTT1=
EXTT2=
EXTT3=
EXTT4=
EXTT5=
EXTT6=
EXTT7=
EXTT8=
EXTT9=
EXTT10=
EXTT11=
EXTT12=
EXTT13=
EXTT14=
EXTT15=
PLAYORDER=
